<svg xmlns="http://www.w3.org/2000/svg" style="display:none">
  <symbol id="icon-user" viewBox="0 0 96 96"><circle cx="48" cy="32" r="20" fill="none" stroke="currentColor" stroke-width="8"/><path d="M16 84c4-18 20-28 32-28s28 10 32 28" fill="none" stroke="currentColor" stroke-width="8" stroke-linecap="round"/></symbol>
  <symbol id="icon-scan" viewBox="0 0 96 96"><g stroke="currentColor" stroke-width="8" stroke-linecap="round" stroke-linejoin="round" fill="none"><path d="M12 32V16a4 4 0 0 1 4-4h16"/><path d="M84 32V16a4 4 0 0 0-4-4H64"/><path d="M12 64v16a4 4 0 0 0 4 4h16"/><path d="M84 64v16a4 4 0 0 1-4 4H64"/></g><rect x="32" y="32" width="32" height="32" rx="4" fill="currentColor" fill-opacity="0.15" stroke="currentColor" stroke-width="4"/></symbol>
  <symbol id="icon-table" viewBox="0 0 128 80"><rect x="4" y="4" width="120" height="72" rx="6" ry="6" fill="currentColor" fill-opacity="0.15" stroke="currentColor" stroke-width="8"/><rect x="16" y="16" width="96" height="48" rx="4" fill="none" stroke="currentColor" stroke-width="2"/><circle cx="28" cy="28" r="3" fill="currentColor"/><circle cx="100" cy="28" r="3" fill="currentColor"/><circle cx="28" cy="52" r="3" fill="currentColor"/><circle cx="100" cy="52" r="3" fill="currentColor"/></symbol>
  <symbol id="icon-payment" viewBox="0 0 120 80"><rect x="4" y="12" width="112" height="56" rx="8" fill="none" stroke="currentColor" stroke-width="4"/><rect x="8" y="24" width="104" height="12" rx="2" fill="currentColor"/><circle cx="40" cy="52" r="8" fill="currentColor"/><circle cx="80" cy="52" r="8" fill="currentColor"/></symbol>
  <symbol id="icon-session" viewBox="0 0 120 80"><rect x="8" y="16" width="104" height="48" rx="8" fill="none" stroke="currentColor" stroke-width="4"/><path d="M32 40h56" stroke="currentColor" stroke-width="8" stroke-linecap="round"/><circle cx="44" cy="40" r="20" fill="currentColor" fill-opacity="0.15" stroke="currentColor" stroke-width="4"/></symbol>
</svg>